<svg width="44" height="67" viewBox="0 0 44 67" fill="none" xmlns="http://www.w3.org/2000/svg">
<path d="M22.0852 31.4205C22.5149 31.9797 22.7577 32.7174 22.7577 33.4996C22.7577 34.2819 22.515 35.0196 22.0852 35.5788C21.6549 36.1388 21.0041 36.5518 20.2247 36.5518C19.4453 36.5518 18.7945 36.1388 18.3641 35.5788C17.9345 35.0197 17.6917 34.2819 17.6917 33.4997L22.0852 31.4205ZM22.0852 31.4205C21.6549 30.8606 21.0041 30.4474 20.2247 30.4474M22.0852 31.4205L20.2247 30.4474M20.2247 30.4474C19.4453 30.4474 18.7945 30.8606 18.3642 31.4205M20.2247 30.4474L18.3642 31.4205M18.3642 31.4205C17.9345 31.9796 17.6917 32.7174 17.6917 33.4996L18.3642 31.4205ZM15.5236 5.6929H16.3329V4.88357V0.968656L43.0869 5.8025L43.0583 61.2313L16.3329 66.0316V62.0568V61.2481L15.5243 61.2475L0.809325 61.2354V5.6929H15.5236ZM3.79974 57.4388V58.2475L4.60841 58.2481L15.5229 58.2569L16.3329 58.2576V57.4476V9.49263V8.68331H15.5236H4.60906H3.79974V9.49263V57.4388Z" fill="white" stroke="black" stroke-width="1.61865"/>
<path d="M39.3622 41.6233C39.3622 41.6233 38.3716 41.6233 38.1479 41.6233C34.8303 41.6233 31.9389 40.3447 29.6472 38.0221C27.3555 40.3446 24.4644 41.6233 21.1468 41.6233C20.9232 41.6233 19.9325 41.6233 19.9325 41.6233C19.9325 41.6233 19.9324 44.0241 19.9324 45.424C19.9324 52.2584 24.0605 58.0012 29.6473 59.6294C35.2341 58.0012 39.3622 52.2584 39.3622 45.424C39.3622 44.0241 39.3622 41.6233 39.3622 41.6233Z" stroke="black" stroke-width="2" stroke-linecap="round" stroke-linejoin="round"/>
<path d="M33.3706 54.7708L32.5114 53.6147C32.5439 53.4615 32.5645 53.309 32.5747 53.1581L32.7308 53.2652L34.0443 54.1669C33.9745 54.2399 33.9018 54.3119 33.8263 54.3829C33.6848 54.5158 33.5331 54.6453 33.3706 54.7708ZM33.3706 54.7708L32.504 53.649C32.3908 54.1554 32.147 54.6697 31.7212 55.1642C31.7204 55.1651 31.7197 55.1661 31.7189 55.167C31.5815 55.3262 31.4253 55.4834 31.2485 55.6375C31.2437 55.6417 31.2389 55.6459 31.234 55.6501M33.3706 54.7708C32.9774 55.063 32.5513 55.3061 32.1017 55.4954C32.1004 55.4959 32.099 55.4965 32.0977 55.4971C31.8521 55.6002 31.5996 55.6874 31.3417 55.7577L31.2581 55.6742L31.234 55.6501M31.234 55.6501C31.2317 55.6524 31.2296 55.6548 31.2277 55.6573C31.1893 55.7084 31.2364 55.7963 31.2841 55.7731C31.2994 55.7691 31.3147 55.765 31.3299 55.7609L31.2595 55.6795L31.234 55.6501ZM27.6077 55.6021C27.6577 55.6508 27.6077 55.7481 27.5334 55.7238C27.522 55.7212 27.5106 55.7185 27.4992 55.7158L27.5466 55.6662L27.5552 55.6572L27.6077 55.6021ZM27.6077 55.6021C27.5989 55.5937 27.5901 55.5853 27.5814 55.5768C27.5775 55.573 27.5736 55.5692 27.5697 55.5654C27.4265 55.4252 27.3031 55.284 27.1977 55.1427L26.8918 55.5309C27.0891 55.6048 27.2914 55.6665 27.4975 55.7154L27.5469 55.6646L27.5557 55.6557L27.6077 55.6021ZM24.8506 47.8558C25.0997 47.493 25.3558 47.1463 25.6067 46.8068C25.6839 46.7023 25.7606 46.5984 25.8365 46.495C25.8424 46.4869 25.8484 46.4788 25.8543 46.4707C25.8854 46.4283 25.9163 46.386 25.947 46.3437L27.0771 47.4966L27.4385 47.8654L28.2914 48.7356L28.1872 48.8331L28.166 48.853L27.996 49.0119L27.3907 49.5782L26.4263 48.9242L26.292 48.8331L25.0923 48.0197L25.0865 48.0157L25.0397 47.984L24.8506 47.8558ZM24.8506 47.8558C24.8057 47.9221 24.7614 47.9905 24.7178 48.061C24.7106 48.0728 24.7034 48.0846 24.6961 48.0964C24.5734 48.2983 24.4573 48.5163 24.3516 48.7471L24.4503 48.8331L24.6133 48.9752L24.6196 48.9807L24.6387 48.9974L25.8805 50.0795L26.385 50.5191L26.6105 50.3082L26.8549 50.0795L27.3776 49.5905L26.4081 48.9249L26.2743 48.8331L25.0916 48.0212L25.0858 48.0172L25.038 47.9844L24.8506 47.8558ZM35.2901 50.2107L35.5062 50.1681C35.5091 50.2602 35.5101 50.3523 35.5093 50.4445C35.4973 51.7417 35.1051 53.0325 34.0887 54.1199L32.5783 53.0958C32.616 52.3223 32.3829 51.5927 32.0729 51.0112C32.0629 50.9925 32.0529 50.9739 32.0427 50.9555C32.0254 50.9241 32.0079 50.8931 31.9902 50.8626L32.1642 50.8283L32.2715 50.8071L35.2901 50.2107ZM26.9543 54.759L26.4359 55.3339C26.1692 55.2028 25.9141 55.0481 25.6737 54.8713C25.5878 54.8082 25.5038 54.7422 25.4218 54.6735C25.1997 54.4903 25.0038 54.2984 24.832 54.0996C24.5858 53.8147 24.389 53.5157 24.2354 53.2078L25.2336 52.1974L26.4988 50.9168L26.6568 50.7569L27.0637 51.1111L27.4471 51.4445L27.064 51.1107L26.6573 50.7563L26.8391 50.5723L27.326 50.0795L27.6347 49.767L27.9208 49.9634L28.0899 50.0795L28.1368 50.1117L28.3661 50.2691C28.1514 50.7517 27.852 51.1465 27.5961 51.4469C27.5749 51.4718 27.5539 51.4961 27.5334 51.5197C27.4707 51.5917 27.406 51.6717 27.3414 51.7591C27.3351 51.7675 27.3289 51.7761 27.3226 51.7847C27.0713 52.1305 26.8263 52.5854 26.7208 53.0986C26.7186 53.1095 26.7164 53.1203 26.7143 53.1312C26.6171 53.635 26.6556 54.1934 26.9543 54.759ZM24.419 52.3583L24.0305 52.7218C23.9992 52.6322 23.9711 52.5421 23.9462 52.4517C23.7771 51.839 23.7501 51.2097 23.822 50.6021C23.8232 50.5921 23.8244 50.5822 23.8256 50.5722C23.8462 50.406 23.8741 50.2415 23.9086 50.0795C23.9874 49.7081 24.1003 49.3498 24.2365 49.0138C24.2612 48.9528 24.2867 48.8926 24.3129 48.8331C24.3233 48.8097 24.3337 48.7863 24.3443 48.7631C24.3463 48.7587 24.3483 48.7542 24.3504 48.7497L24.4462 48.8331L24.6121 48.9775L24.6185 48.983L24.6351 48.9975L25.8784 50.0795L26.3843 50.5197L26.2383 50.6564L24.419 52.3583ZM28.1229 49.2728L28.4718 48.9197L28.6014 49.052L28.65 49.1015C28.6496 49.1084 28.6493 49.1153 28.6489 49.1221C28.6322 49.4363 28.568 49.7278 28.4745 49.9959C28.4647 50.024 28.4546 50.0519 28.4441 50.0795C28.4227 50.1362 28.4 50.1918 28.3761 50.2464L28.1474 50.0913L28.13 50.0795L27.9336 49.9463L27.6485 49.753L28.1229 49.2728Z" fill="black" stroke="black" stroke-width="33.3333"/>
</svg>
